<?xml version="1.0" encoding="utf-8"?>
<!-- Generator: Adobe Illustrator 24.0.2, SVG Export Plug-In . SVG Version: 6.00 Build 0)  -->
<svg version="1.1" id="Layer_1" xmlns:serif="http://www.serif.com/"
	 xmlns="http://www.w3.org/2000/svg" xmlns:xlink="http://www.w3.org/1999/xlink" x="0px" y="0px" viewBox="0 0 841.9 595.3"
	 style="enable-background:new 0 0 841.9 595.3;" xml:space="preserve">
<style type="text/css">
	.st0{fill-rule:evenodd;clip-rule:evenodd;fill:#FFFFFF;stroke:#FFFFFF;stroke-miterlimit:10;}
	.st1{display:none;fill-rule:evenodd;clip-rule:evenodd;}
</style>
<path class="st0" d="M414.8,591.7l0.3,0h-0.1L414.8,591.7L414.8,591.7z M416.9,591.7L416.9,591.7l0.2,0L416.9,591.7z M413.9,591.7
	l0.3,0H414L413.9,591.7z M417.8,591.7h-0.2l0.3,0L417.8,591.7z M413,591.6l0.2,0L413,591.6L413,591.6L413,591.6z M418.8,591.6
	l-0.2,0L418.8,591.6L418.8,591.6L418.8,591.6z M419.7,591.6L419.7,591.6l0.2,0L419.7,591.6L419.7,591.6z M411.9,591.6l0.3,0l-0.1,0
	L411.9,591.6L411.9,591.6z M420.7,591.6l-0.2,0l0.3,0L420.7,591.6L420.7,591.6z M410.9,591.6l0.3,0l-0.2,0L410.9,591.6L410.9,591.6z
	 M421.7,591.6l-0.2,0L421.7,591.6L421.7,591.6z M410.1,591.6l0.3,0L410.1,591.6L410.1,591.6L410.1,591.6z M409,591.6l0.3,0l0,0
	L409,591.6L409,591.6z M422.6,591.6L422.6,591.6l0.2,0L422.6,591.6z M408,591.6l0.4,0l-0.1,0L408,591.6z M423.6,591.6l-0.1,0l0.4,0
	L423.6,591.6z M424.5,591.5l-0.2,0l0.4,0L424.5,591.5L424.5,591.5z M407.1,591.5l0.4,0l-0.2,0L407.1,591.5L407.1,591.5z
	 M406.3,591.5l0.3,0L406.3,591.5l-0.2,0L406.3,591.5z M425.5,591.5l-0.2,0L425.5,591.5l0.2,0L425.5,591.5z M426.4,591.5l-0.1,0
	l0.4,0L426.4,591.5z M405.1,591.5l0.4,0l-0.1,0L405.1,591.5z M404.2,591.4l0.4,0l-0.2,0L404.2,591.4z M427.4,591.4l-0.2,0l0.4,0
	L427.4,591.4z M403.4,591.4l0.4,0L403.4,591.4L403.4,591.4L403.4,591.4z M428.4,591.4l-0.3,0L428.4,591.4L428.4,591.4L428.4,591.4z
	 M402.2,591.3l0.4,0l-0.1,0L402.2,591.3z M429.3,591.4l-0.1,0l0.4,0L429.3,591.4L429.3,591.4z M401.3,591.3l0.5,0l-0.2,0
	L401.3,591.3z M430.3,591.3l-0.2,0l0.5,0L430.3,591.3z M400.5,591.3l0.5,0l-0.3,0L400.5,591.3z M431.2,591.3l-0.3,0l0.5,0
	L431.2,591.3z M432.2,591.2l-0.4,0L432.2,591.2l0.4,0L432.2,591.2L432.2,591.2z M399.7,591.2l0.4,0L399.7,591.2l-0.4,0L399.7,591.2
	L399.7,591.2z M433.1,591.2l-0.2,0l0.5,0L433.1,591.2z M398.4,591.2l0.5,0l-0.2,0L398.4,591.2z M397.6,591.1l0.5,0l-0.3,0
	L397.6,591.1L397.6,591.1z M434.1,591.1l-0.3,0l0.5,0L434.1,591.1L434.1,591.1z M396.8,591.1l0.4,0L396.8,591.1l-0.4,0L396.8,591.1
	L396.8,591.1z M435,591.1l-0.4,0L435,591.1l0.4,0L435,591.1L435,591.1z M436,591l-0.1,0l0.4,0L436,591L436,591z M395.5,591l0.4,0
	l-0.1,0L395.5,591z M394.7,590.9l0.4,0l-0.2,0L394.7,590.9L394.7,590.9z M436.9,590.9l-0.2,0l0.4,0L436.9,590.9z M393.9,590.9l0.4,0
	L393.9,590.9L393.9,590.9L393.9,590.9z M437.8,590.9l-0.3,0L437.8,590.9L437.8,590.9L437.8,590.9z M392.7,590.8l0.4,0l-0.1,0
	L392.7,590.8z M438.8,590.8L438.8,590.8l0.3,0L438.8,590.8z M439.7,590.7l-0.2,0l0.4,0L439.7,590.7z M391.9,590.7l0.4,0l-0.2,0
	L391.9,590.7L391.9,590.7z M391,590.6l0.3,0L391,590.6L391,590.6z M440.7,590.6l-0.2,0L440.7,590.6L440.7,590.6z M390.1,590.6
	L390.1,590.6L390.1,590.6L390.1,590.6L390.1,590.6z M441.6,590.6L441.6,590.6L441.6,590.6L441.6,590.6L441.6,590.6z M442.6,590.5
	L442.6,590.5l0.1,0L442.6,590.5L442.6,590.5z M389.1,590.5l0.2,0l-0.1,0L389.1,590.5L389.1,590.5z M388.2,590.4l0.2,0L388.2,590.4
	L388.2,590.4z M443.5,590.4L443.5,590.4L443.5,590.4L443.5,590.4z M369.4,588c-142.2-22.4-251.1-145.6-251.1-294
	c0-164.3,133.4-297.6,297.6-297.6S713.5,129.7,713.5,294c0,148.5-108.9,271.7-251.1,294v-208h69.4l13.2-86h-82.5v-55.8
	c0-23.5,11.5-46.5,48.5-46.5h37.5v-73.2c0,0-34.1-5.8-66.6-5.8c-68,0-112.4,41.2-112.4,115.8V294h-75.6v86h75.6V588z"/>
<path class="st1" d="M418.8,595.3l0.3,0H419L418.8,595.3L418.8,595.3z M420.9,595.3L420.9,595.3l0.2,0L420.9,595.3z M417.9,595.3
	l0.3,0H418L417.9,595.3z M421.9,595.3h-0.2l0.3,0L421.9,595.3z M417,595.3l0.2,0L417,595.3L417,595.3L417,595.3z M422.8,595.3
	l-0.2,0L422.8,595.3L422.8,595.3L422.8,595.3z M423.8,595.3L423.8,595.3l0.2,0L423.8,595.3L423.8,595.3z M415.9,595.2l0.3,0l-0.1,0
	L415.9,595.2L415.9,595.2z M424.7,595.2l-0.2,0l0.3,0L424.7,595.2L424.7,595.2z M415,595.2l0.3,0l-0.2,0L415,595.2L415,595.2z
	 M425.7,595.2l-0.2,0L425.7,595.2L425.7,595.2z M414.1,595.2l0.3,0L414.1,595.2L414.1,595.2L414.1,595.2z M413,595.2l0.3,0l0,0
	L413,595.2L413,595.2z M426.7,595.2L426.7,595.2l0.2,0L426.7,595.2z M412.1,595.2l0.4,0l-0.1,0L412.1,595.2z M427.6,595.2l-0.1,0
	l0.4,0L427.6,595.2z M428.6,595.2l-0.2,0l0.4,0L428.6,595.2L428.6,595.2z M411.2,595.1l0.4,0l-0.2,0L411.2,595.1L411.2,595.1z
	 M410.3,595.1l0.3,0L410.3,595.1l-0.2,0L410.3,595.1z M429.5,595.1l-0.2,0L429.5,595.1l0.2,0L429.5,595.1z M430.5,595.1l-0.1,0
	l0.4,0L430.5,595.1z M409.1,595.1l0.4,0l-0.1,0L409.1,595.1z M408.3,595.1l0.4,0l-0.2,0L408.3,595.1z M431.4,595.1l-0.2,0l0.4,0
	L431.4,595.1z M407.4,595l0.4,0L407.4,595L407.4,595L407.4,595z M432.4,595l-0.3,0L432.4,595L432.4,595L432.4,595z M406.2,595l0.4,0
	l-0.1,0L406.2,595z M433.3,595l-0.1,0l0.4,0L433.3,595L433.3,595z M405.3,594.9l0.5,0l-0.2,0L405.3,594.9z M434.3,594.9l-0.2,0
	l0.5,0L434.3,594.9z M404.5,594.9l0.5,0l-0.3,0L404.5,594.9z M435.2,594.9l-0.3,0l0.5,0L435.2,594.9z M436.2,594.8l-0.4,0
	L436.2,594.8l0.4,0L436.2,594.8L436.2,594.8z M403.7,594.8l0.4,0L403.7,594.8l-0.4,0L403.7,594.8L403.7,594.8z M437.1,594.8l-0.2,0
	l0.5,0L437.1,594.8z M402.4,594.8l0.5,0l-0.2,0L402.4,594.8z M401.6,594.7l0.5,0l-0.3,0L401.6,594.7L401.6,594.7z M438.1,594.7
	l-0.3,0l0.5,0L438.1,594.7L438.1,594.7z M400.8,594.7l0.4,0L400.8,594.7l-0.4,0L400.8,594.7L400.8,594.7z M439,594.7l-0.4,0
	L439,594.7l0.4,0L439,594.7L439,594.7z M440,594.6l-0.1,0l0.4,0L440,594.6L440,594.6z M399.6,594.6l0.4,0l-0.1,0L399.6,594.6z
	 M398.7,594.5l0.4,0l-0.2,0L398.7,594.5L398.7,594.5z M440.9,594.5l-0.2,0l0.4,0L440.9,594.5z M397.9,594.5l0.4,0L397.9,594.5
	L397.9,594.5L397.9,594.5z M441.9,594.5l-0.3,0L441.9,594.5L441.9,594.5L441.9,594.5z M396.8,594.4l0.4,0l-0.1,0L396.8,594.4z
	 M442.8,594.4L442.8,594.4l0.3,0L442.8,594.4z M443.8,594.3l-0.2,0l0.4,0L443.8,594.3z M395.9,594.3l0.4,0l-0.2,0L395.9,594.3
	L395.9,594.3z M395.1,594.2l0.3,0L395.1,594.2L395.1,594.2z M444.7,594.3l-0.2,0L444.7,594.3L444.7,594.3z M394.1,594.2L394.1,594.2
	L394.1,594.2L394.1,594.2L394.1,594.2z M445.7,594.2L445.7,594.2L445.7,594.2L445.7,594.2L445.7,594.2z M446.6,594.1L446.6,594.1
	l0.1,0L446.6,594.1L446.6,594.1z M393.2,594.1l0.2,0l-0.1,0L393.2,594.1L393.2,594.1z M392.3,594l0.2,0L392.3,594L392.3,594z
	 M447.5,594L447.5,594L447.5,594L447.5,594z M373.4,591.7c-142.2-22.4-251.1-145.6-251.1-294C122.3,133.4,255.7,0,419.9,0
	s297.6,133.4,297.6,297.6c0,148.5-108.9,271.7-251.1,294v-208h69.4l13.2-86h-82.5v-55.8c0-23.5,11.5-46.5,48.5-46.5h37.5v-73.2
	c0,0-34.1-5.8-66.6-5.8c-68,0-112.4,41.2-112.4,115.8v65.6h-75.6v86h75.6V591.7z"/>
</svg>
