<?xml version="1.0" encoding="utf-8"?>
<!-- Generator: Adobe Illustrator 24.0.2, SVG Export Plug-In . SVG Version: 6.00 Build 0)  -->
<svg version="1.1" id="Layer_1" xmlns:serif="http://www.serif.com/"
	 xmlns="http://www.w3.org/2000/svg" xmlns:xlink="http://www.w3.org/1999/xlink" x="0px" y="0px" viewBox="0 0 841.9 595.3"
	 style="enable-background:new 0 0 841.9 595.3;" xml:space="preserve">
<style type="text/css">
	.st0{fill-rule:evenodd;clip-rule:evenodd;fill:#99752C;stroke:#FFFFFF;stroke-miterlimit:10;}
	.st1{display:none;fill-rule:evenodd;clip-rule:evenodd;}
</style>
<path class="st0" d="M414.8,591.7h0.3H415H414.8L414.8,591.7z M416.9,591.7L416.9,591.7h0.2H416.9z M413.9,591.7h0.3H414H413.9z
	 M417.8,591.7h-0.2H417.8L417.8,591.7z M413,591.6h0.2H413L413,591.6L413,591.6z M418.8,591.6h-0.2H418.8L418.8,591.6L418.8,591.6z
	 M419.7,591.6L419.7,591.6h0.2H419.7L419.7,591.6z M411.9,591.6h0.3h-0.1H411.9L411.9,591.6z M420.7,591.6h-0.2H420.7L420.7,591.6
	L420.7,591.6z M410.9,591.6h0.3H410.9L410.9,591.6L410.9,591.6z M421.7,591.6h-0.2H421.7L421.7,591.6z M410.1,591.6h0.3H410.1
	L410.1,591.6L410.1,591.6z M409,591.6h0.3l0,0H409L409,591.6z M422.6,591.6L422.6,591.6h0.2H422.6z M408,591.6h0.4h-0.1H408z
	 M423.6,591.6h-0.1h0.4H423.6z M424.5,591.5h-0.2h0.4H424.5L424.5,591.5z M407.1,591.5h0.4h-0.2H407.1L407.1,591.5z M406.3,591.5
	h0.3H406.3h-0.2H406.3z M425.5,591.5h-0.2H425.5h0.2H425.5z M426.4,591.5h-0.1h0.4H426.4z M405.1,591.5h0.4h-0.1H405.1z
	 M404.2,591.4h0.4h-0.2H404.2z M427.4,591.4h-0.2h0.4H427.4z M403.4,591.4h0.4H403.4L403.4,591.4L403.4,591.4z M428.4,591.4h-0.3
	H428.4L428.4,591.4L428.4,591.4z M402.2,591.3h0.4h-0.1H402.2z M429.3,591.4h-0.1h0.4H429.3L429.3,591.4z M401.3,591.3h0.5h-0.2
	H401.3z M430.3,591.3h-0.2h0.5H430.3z M400.5,591.3h0.5h-0.3H400.5z M431.2,591.3h-0.3h0.5H431.2z M432.2,591.2h-0.4H432.2h0.4
	H432.2L432.2,591.2z M399.7,591.2h0.4H399.7h-0.4H399.7L399.7,591.2z M433.1,591.2h-0.2h0.5H433.1z M398.4,591.2h0.5h-0.2H398.4z
	 M397.6,591.1h0.5h-0.3H397.6L397.6,591.1z M434.1,591.1h-0.3h0.5H434.1L434.1,591.1z M396.8,591.1h0.4H396.8h-0.4H396.8
	L396.8,591.1z M435,591.1h-0.4H435h0.4H435L435,591.1z M436,591h-0.1h0.4H436L436,591z M395.5,591h0.4h-0.1H395.5z M394.7,590.9h0.4
	h-0.2H394.7L394.7,590.9z M436.9,590.9h-0.2h0.4H436.9z M393.9,590.9h0.4H393.9L393.9,590.9L393.9,590.9z M437.8,590.9h-0.3H437.8
	L437.8,590.9L437.8,590.9z M392.7,590.8h0.4H393H392.7z M438.8,590.8L438.8,590.8h0.3H438.8z M439.7,590.7h-0.2h0.4H439.7z
	 M391.9,590.7h0.4h-0.2H391.9L391.9,590.7z M391,590.6h0.3H391L391,590.6z M440.7,590.6h-0.2H440.7L440.7,590.6z M390.1,590.6
	L390.1,590.6L390.1,590.6L390.1,590.6L390.1,590.6z M441.6,590.6L441.6,590.6L441.6,590.6L441.6,590.6L441.6,590.6z M442.6,590.5
	L442.6,590.5h0.1H442.6L442.6,590.5z M389.1,590.5h0.2h-0.1H389.1L389.1,590.5z M388.2,590.4h0.2H388.2L388.2,590.4z M443.5,590.4
	L443.5,590.4L443.5,590.4L443.5,590.4z M369.4,588c-142.2-22.4-251.1-145.6-251.1-294c0-164.3,133.4-297.6,297.6-297.6
	S713.5,129.7,713.5,294c0,148.5-108.9,271.7-251.1,294V380h69.4l13.2-86h-82.5v-55.8c0-23.5,11.5-46.5,48.5-46.5h37.5v-73.2
	c0,0-34.1-5.8-66.6-5.8c-68,0-112.4,41.2-112.4,115.8V294h-75.6v86h75.6v208H369.4z"/>
<path class="st1" d="M418.8,595.3h0.3H419H418.8L418.8,595.3z M420.9,595.3L420.9,595.3h0.2H420.9z M417.9,595.3h0.3H418H417.9z
	 M421.9,595.3h-0.2H421.9L421.9,595.3z M417,595.3h0.2H417L417,595.3L417,595.3z M422.8,595.3h-0.2H422.8L422.8,595.3L422.8,595.3z
	 M423.8,595.3L423.8,595.3h0.2H423.8L423.8,595.3z M415.9,595.2h0.3h-0.1H415.9L415.9,595.2z M424.7,595.2h-0.2H424.7L424.7,595.2
	L424.7,595.2z M415,595.2h0.3H415L415,595.2L415,595.2z M425.7,595.2h-0.2H425.7L425.7,595.2z M414.1,595.2h0.3H414.1L414.1,595.2
	L414.1,595.2z M413,595.2h0.3l0,0H413L413,595.2z M426.7,595.2L426.7,595.2h0.2H426.7z M412.1,595.2h0.4h-0.1H412.1z M427.6,595.2
	h-0.1h0.4H427.6z M428.6,595.2h-0.2h0.4H428.6L428.6,595.2z M411.2,595.1h0.4h-0.2H411.2L411.2,595.1z M410.3,595.1h0.3H410.3h-0.2
	H410.3z M429.5,595.1h-0.2H429.5h0.2H429.5z M430.5,595.1h-0.1h0.4H430.5z M409.1,595.1h0.4h-0.1H409.1z M408.3,595.1h0.4h-0.2
	H408.3z M431.4,595.1h-0.2h0.4H431.4z M407.4,595h0.4H407.4L407.4,595L407.4,595z M432.4,595h-0.3H432.4L432.4,595L432.4,595z
	 M406.2,595h0.4h-0.1H406.2z M433.3,595h-0.1h0.4H433.3L433.3,595z M405.3,594.9h0.5h-0.2H405.3z M434.3,594.9h-0.2h0.5H434.3z
	 M404.5,594.9h0.5h-0.3H404.5z M435.2,594.9h-0.3h0.5H435.2z M436.2,594.8h-0.4H436.2h0.4H436.2L436.2,594.8z M403.7,594.8h0.4
	H403.7h-0.4H403.7L403.7,594.8z M437.1,594.8h-0.2h0.5H437.1z M402.4,594.8h0.5h-0.2H402.4z M401.6,594.7h0.5h-0.3H401.6
	L401.6,594.7z M438.1,594.7h-0.3h0.5H438.1L438.1,594.7z M400.8,594.7h0.4H400.8h-0.4H400.8L400.8,594.7z M439,594.7h-0.4H439h0.4
	H439L439,594.7z M440,594.6h-0.1h0.4H440L440,594.6z M399.6,594.6h0.4h-0.1H399.6z M398.7,594.5h0.4h-0.2H398.7L398.7,594.5z
	 M440.9,594.5h-0.2h0.4H440.9z M397.9,594.5h0.4H397.9L397.9,594.5L397.9,594.5z M441.9,594.5h-0.3H441.9L441.9,594.5L441.9,594.5z
	 M396.8,594.4h0.4h-0.1H396.8z M442.8,594.4L442.8,594.4h0.3H442.8z M443.8,594.3h-0.2h0.4H443.8z M395.9,594.3h0.4h-0.2H395.9
	L395.9,594.3z M395.1,594.2h0.3H395.1L395.1,594.2z M444.7,594.3h-0.2H444.7L444.7,594.3z M394.1,594.2L394.1,594.2L394.1,594.2
	L394.1,594.2L394.1,594.2z M445.7,594.2L445.7,594.2L445.7,594.2L445.7,594.2L445.7,594.2z M446.6,594.1L446.6,594.1h0.1H446.6
	L446.6,594.1z M393.2,594.1h0.2h-0.1H393.2L393.2,594.1z M392.3,594h0.2H392.3L392.3,594z M447.5,594L447.5,594L447.5,594L447.5,594
	z M373.4,591.7c-142.2-22.4-251.1-145.6-251.1-294C122.3,133.4,255.7,0,419.9,0s297.6,133.4,297.6,297.6
	c0,148.5-108.9,271.7-251.1,294v-208h69.4l13.2-86h-82.5v-55.8c0-23.5,11.5-46.5,48.5-46.5h37.5v-73.2c0,0-34.1-5.8-66.6-5.8
	c-68,0-112.4,41.2-112.4,115.8v65.6h-75.6v86h75.6v208H373.4z"/>
</svg>
