<?xml version="1.0" encoding="utf-8"?>
<!-- Generator: Adobe Illustrator 24.0.2, SVG Export Plug-In . SVG Version: 6.00 Build 0)  -->
<svg version="1.1" xmlns="http://www.w3.org/2000/svg" xmlns:xlink="http://www.w3.org/1999/xlink" x="0px" y="0px"
	 viewBox="0 0 841.9 595.3" style="enable-background:new 0 0 841.9 595.3;" xml:space="preserve">
<style type="text/css">
	.st0{fill-rule:evenodd;clip-rule:evenodd;}
	.st1{fill-rule:evenodd;clip-rule:evenodd;fill:#FFFFFF;stroke:#FFFFFF;stroke-miterlimit:10;}
</style>
<g id="Layer_1" xmlns:serif="http://www.serif.com/">
	<path class="st0" d="M420.9,0c164.3,0,297.6,133.4,297.6,297.6S585.2,595.3,420.9,595.3S123.3,461.9,123.3,297.6S256.7,0,420.9,0z
		 M420.9,111.6c-50.5,0-56.9,0.2-76.7,1.1c-19.8,0.9-33.3,4-45.2,8.6c-12.2,4.8-22.6,11.1-32.9,21.5c-10.3,10.3-16.7,20.7-21.5,32.9
		c-4.6,11.8-7.7,25.4-8.6,45.2c-0.9,19.8-1.1,26.2-1.1,76.7s0.2,56.9,1.1,76.7c0.9,19.8,4,33.3,8.6,45.2
		c4.8,12.2,11.1,22.6,21.5,32.9c10.3,10.3,20.7,16.7,32.9,21.5c11.8,4.6,25.4,7.7,45.2,8.6c19.8,0.9,26.2,1.1,76.7,1.1
		s56.9-0.2,76.7-1.1c19.8-0.9,33.3-4,45.2-8.6c12.2-4.8,22.6-11.1,32.9-21.5c10.3-10.3,16.7-20.7,21.5-32.9
		c4.6-11.8,7.7-25.4,8.6-45.2c0.9-19.8,1.1-26.2,1.1-76.7s-0.2-56.9-1.1-76.7c-0.9-19.8-4-33.3-8.6-45.2
		c-4.8-12.2-11.1-22.6-21.5-32.9c-10.3-10.3-20.7-16.7-32.9-21.5c-11.8-4.6-25.4-7.7-45.2-8.6C477.8,111.8,471.5,111.6,420.9,111.6z
		 M420.9,145.1c49.7,0,55.6,0.2,75.2,1.1c18.1,0.8,28,3.9,34.5,6.4c8.7,3.4,14.9,7.4,21.4,13.9c6.5,6.5,10.5,12.7,13.9,21.4
		c2.5,6.6,5.6,16.4,6.4,34.5c0.9,19.6,1.1,25.5,1.1,75.2s-0.2,55.6-1.1,75.2c-0.8,18.1-3.9,28-6.4,34.5c-3.4,8.7-7.4,14.9-13.9,21.4
		c-6.5,6.5-12.7,10.5-21.4,13.9c-6.6,2.5-16.4,5.6-34.5,6.4c-19.6,0.9-25.5,1.1-75.2,1.1s-55.6-0.2-75.2-1.1
		c-18.1-0.8-28-3.9-34.5-6.4c-8.7-3.4-14.9-7.4-21.4-13.9c-6.5-6.5-10.5-12.7-13.9-21.4c-2.5-6.6-5.6-16.4-6.4-34.5
		c-0.9-19.6-1.1-25.5-1.1-75.2s0.2-55.6,1.1-75.2c0.8-18.1,3.9-28,6.4-34.5c3.4-8.7,7.4-14.9,13.9-21.4c6.5-6.5,12.7-10.5,21.4-13.9
		c6.6-2.5,16.4-5.6,34.5-6.4C365.4,145.3,371.3,145.1,420.9,145.1z M420.9,202.1c-52.8,0-95.5,42.8-95.5,95.5s42.8,95.5,95.5,95.5
		s95.5-42.8,95.5-95.5S473.7,202.1,420.9,202.1L420.9,202.1z M420.9,359.6c-34.2,0-62-27.8-62-62s27.8-62,62-62s62,27.8,62,62
		S455.2,359.6,420.9,359.6z M542.6,198.3c0,12.3-10,22.3-22.3,22.3c-12.3,0-22.3-10-22.3-22.3c0-12.3,10-22.3,22.3-22.3
		C532.6,176,542.6,186,542.6,198.3z"/>
</g>
<g id="Layer_1_copy" xmlns:serif="http://www.serif.com/">
	<path class="st1" d="M420.9,0c164.3,0,297.6,133.4,297.6,297.6S585.2,595.3,420.9,595.3S123.3,461.9,123.3,297.6S256.7,0,420.9,0z
		 M420.9,111.6c-50.5,0-56.9,0.2-76.7,1.1c-19.8,0.9-33.3,4-45.2,8.6c-12.2,4.8-22.6,11.1-32.9,21.5c-10.3,10.3-16.7,20.7-21.5,32.9
		c-4.6,11.8-7.7,25.4-8.6,45.2c-0.9,19.8-1.1,26.2-1.1,76.7s0.2,56.9,1.1,76.7c0.9,19.8,4,33.3,8.6,45.2
		c4.8,12.2,11.1,22.6,21.5,32.9c10.3,10.3,20.7,16.7,32.9,21.5c11.8,4.6,25.4,7.7,45.2,8.6c19.8,0.9,26.2,1.1,76.7,1.1
		s56.9-0.2,76.7-1.1c19.8-0.9,33.3-4,45.2-8.6c12.2-4.8,22.6-11.1,32.9-21.5c10.3-10.3,16.7-20.7,21.5-32.9
		c4.6-11.8,7.7-25.4,8.6-45.2c0.9-19.8,1.1-26.2,1.1-76.7s-0.2-56.9-1.1-76.7c-0.9-19.8-4-33.3-8.6-45.2
		c-4.8-12.2-11.1-22.6-21.5-32.9c-10.3-10.3-20.7-16.7-32.9-21.5c-11.8-4.6-25.4-7.7-45.2-8.6C477.8,111.8,471.5,111.6,420.9,111.6z
		 M420.9,145.1c49.7,0,55.6,0.2,75.2,1.1c18.1,0.8,28,3.9,34.5,6.4c8.7,3.4,14.9,7.4,21.4,13.9c6.5,6.5,10.5,12.7,13.9,21.4
		c2.5,6.6,5.6,16.4,6.4,34.5c0.9,19.6,1.1,25.5,1.1,75.2s-0.2,55.6-1.1,75.2c-0.8,18.1-3.9,28-6.4,34.5c-3.4,8.7-7.4,14.9-13.9,21.4
		c-6.5,6.5-12.7,10.5-21.4,13.9c-6.6,2.5-16.4,5.6-34.5,6.4c-19.6,0.9-25.5,1.1-75.2,1.1s-55.6-0.2-75.2-1.1
		c-18.1-0.8-28-3.9-34.5-6.4c-8.7-3.4-14.9-7.4-21.4-13.9c-6.5-6.5-10.5-12.7-13.9-21.4c-2.5-6.6-5.6-16.4-6.4-34.5
		c-0.9-19.6-1.1-25.5-1.1-75.2s0.2-55.6,1.1-75.2c0.8-18.1,3.9-28,6.4-34.5c3.4-8.7,7.4-14.9,13.9-21.4c6.5-6.5,12.7-10.5,21.4-13.9
		c6.6-2.5,16.4-5.6,34.5-6.4C365.4,145.3,371.3,145.1,420.9,145.1z M420.9,202.1c-52.8,0-95.5,42.8-95.5,95.5s42.8,95.5,95.5,95.5
		s95.5-42.8,95.5-95.5S473.7,202.1,420.9,202.1L420.9,202.1z M420.9,359.6c-34.2,0-62-27.8-62-62s27.8-62,62-62s62,27.8,62,62
		S455.2,359.6,420.9,359.6z M542.6,198.3c0,12.3-10,22.3-22.3,22.3c-12.3,0-22.3-10-22.3-22.3c0-12.3,10-22.3,22.3-22.3
		C532.6,176,542.6,186,542.6,198.3z"/>
</g>
</svg>
